# xmcd CD database file
#
# Track frame offsets:
#	150
#	20929
#	42601
#	55290
#	73619
#	87138
#	104199
#	117076
#	135399
#	158443
#
# Disc length: 2281 seconds
#
# Revision: 0
# Processed by: cddbd v1.4PL0 Copyright (c) Steve Scherf et al.
# Submitted via: CDex 1.50Beta5
#
DISCID=8908e70a
DTITLE=Woody Schabata - May-Rimba
DYEAR=1986
DGENRE=Jazz
TTITLE0=Marimba Intro - Kneading Hooks
TTITLE1=Beautiful Love
TTITLE2=Melange Spezial
TTITLE3=Eos
TTITLE4=Laboratorium
TTITLE5=May-Rimba
TTITLE6=Entweder oder
TTITLE7=Faces
TTITLE8=Stella By Starlight
TTITLE9=Trip
EXTD=YEAR: 1986
EXTT0=
EXTT1=
EXTT2=
EXTT3=
EXTT4=
EXTT5=
EXTT6=
EXTT7=
EXTT8=
EXTT9=
PLAYORDER=
